999
Generated by Autodesk CAM - http://cam.autodesk.com
0
SECTION
2
HEADER
9
$ACADVER
1
AC1006
9
$ANGBASE
50
0
9
$ANGDIR
70
0
0
ENDSEC
0
SECTION
2
BLOCKS
0
ENDSEC
9
$EXTMIN
10
-62.696
20
-63.719
30
-11
9
$EXTMAX
10
62.692
20
63.711
30
15
0
SECTION
2
ENTITIES
0
LINE
8
15
62
3
10
22.634
20
-60.639
30
15
11
22.634
21
-60.639
31
15
0
LINE
8
15
62
3
10
22.634
20
-60.639
30
15
11
22.634
21
-60.639
31
5
0
LINE
8
15
62
4
10
22.634
20
-60.639
30
5
11
22.634
21
-60.639
31
0.6
0
LINE
8
15
62
2
10
22.634
20
-60.639
30
0.6
11
22.634
21
-60.639
31
-10.7
0
LINE
8
15
62
2
10
22.634
20
-60.639
30
-10.7
11
22.637
21
-60.64
31
-10.747
0
LINE
8
15
62
2
10
22.637
20
-60.64
30
-10.747
11
22.647
21
-60.645
31
-10.793
0
LINE
8
15
62
2
10
22.647
20
-60.645
30
-10.793
11
22.664
21
-60.652
31
-10.836
0
LINE
8
15
62
2
10
22.664
20
-60.652
30
-10.836
11
22.686
21
-60.662
31
-10.876
0
LINE
8
15
62
2
10
22.686
20
-60.662
30
-10.876
11
22.714
21
-60.675
31
-10.912
0
LINE
8
15
62
2
10
22.714
20
-60.675
30
-10.912
11
22.747
21
-60.689
31
-10.943
0
LINE
8
15
62
2
10
22.747
20
-60.689
30
-10.943
11
22.783
21
-60.706
31
-10.967
0
LINE
8
15
62
2
10
22.783
20
-60.706
30
-10.967
11
22.823
21
-60.724
31
-10.985
0
LINE
8
15
62
2
10
22.823
20
-60.724
30
-10.985
11
22.865
21
-60.743
31
-10.996
0
LINE
8
15
62
2
10
22.865
20
-60.743
30
-10.996
11
22.908
21
-60.762
31
-11
0
LINE
8
15
62
2
10
22.908
20
-60.762
30
-11
11
22.935
21
-60.774
31
-11
0
ARC
8
15
62
1
10
-28.493
20
-174.987
30
-11
40
125.258
50
64.249506
51
65.75879
0
ARC
8
15
62
1
10
34.697
20
-43.984
30
-11
40
20.189
50
-115.750498
51
-112.630248
0
ARC
8
15
62
1
10
3.24
20
-119.442
30
-11
40
61.563
50
66.346606
51
67.369751
0
ARC
8
15
62
1
10
28.231
20
-62.385
30
-11
40
0.727
50
-113.653472
51
-103.271102
0
LINE
8
15
62
1
10
28.064
20
-63.093
30
-11
11
30.178
21
-63.591
31
-11
0
ARC
8
15
62
1
10
30.345
20
-62.883
30
-11
40
0.727
50
-103.271102
51
-92.884619
0
LINE
8
15
62
1
10
30.308
20
-63.61
30
-11
11
32.477
21
-63.719
31
-11
0
ARC
8
15
62
1
10
32.514
20
-62.993
30
-11
40
0.727
50
-92.884469
51
-82.500135
0
LINE
8
15
62
1
10
32.609
20
-63.714
30
-11
11
34.762
21
-63.43
31
-11
0
ARC
8
15
62
1
10
34.667
20
-62.709
30
-11
40
0.727
50
-82.500096
51
-72.115656
0
LINE
8
15
62
1
10
34.891
20
-63.401
30
-11
11
36.958
21
-62.734
31
-11
0
ARC
8
15
62
1
10
36.734
20
-62.042
30
-11
40
0.727
50
-72.115749
51
-61.731407
0
LINE
8
15
62
1
10
37.079
20
-62.683
30
-11
11
38.992
21
-61.654
31
-11
0
ARC
8
15
62
1
10
38.647
20
-61.014
30
-11
40
0.727
50
-61.731143
51
-51.3439
0
LINE
8
15
62
1
10
39.102
20
-61.581
30
-11
11
40.798
21
-60.225
31
-11
0
ARC
8
15
62
1
10
40.343
20
-59.657
30
-11
40
0.727
50
-51.3439
51
-40.963776
0
LINE
8
15
62
1
10
40.893
20
-60.134
30
-11
11
42.317
21
-58.493
31
-11
0
ARC
8
15
62
1
10
41.767
20
-58.017
30
-11
40
0.727
50
-40.963746
51
-30.574534
0
LINE
8
15
62
1
10
42.393
20
-58.387
30
-11
11
43.498
21
-56.517
31
-11
0
ARC
8
15
62
1
10
42.872
20
-56.147
30
-11
40
0.727
50
-30.574687
51
-20.191951
0
LINE
8
15
62
1
10
43.555
20
-56.398
30
-11
11
44.304
21
-54.359
31
-11
0
LINE
8
15
62
1
10
44.304
20
-54.359
30
-11
11
61.99
21
11.633
31
-11
0
ARC
8
15
62
1
10
48.726
20
15.187
30
-11
40
13.732
50
-15.000059
51
-9.012337
0
ARC
8
15
62
1
10
103.963
20
6.426
30
-11
40
42.196
50
169.039882
51
170.987662
0
ARC
8
15
62
1
10
61.823
20
14.587
30
-11
40
0.727
50
-10.960081
51
-2.885369
0
LINE
8
15
62
1
10
62.55
20
14.55
30
-11
11
62.691
21
17.364
31
-11
0
ARC
8
15
62
1
10
61.965
20
17.4
30
-11
40
0.727
50
-2.885219
51
5.191585
0
LINE
8
15
62
1
10
62.689
20
17.466
30
-11
11
62.434
21
20.272
31
-11
0
ARC
8
15
62
1
10
61.71
20
20.206
30
-11
40
0.727
50
5.191558
51
13.269209
0
LINE
8
15
62
1
10
62.418
20
20.373
30
-11
11
61.771
21
23.115
31
-11
0
ARC
8
15
62
1
10
61.064
20
22.948
30
-11
40
0.727
50
13.269132
51
21.346728
0
LINE
8
15
62
1
10
61.741
20
23.212
30
-11
11
60.716
21
25.836
31
-11
0
ARC
8
15
62
1
10
60.038
20
25.571
30
-11
40
0.727
50
21.346618
51
29.423342
0
LINE
8
15
62
1
10
60.672
20
25.929
30
-11
11
59.288
21
28.382
31
-11
0
ARC
8
15
62
1
10
58.654
20
28.025
30
-11
40
0.727
50
29.423194
51
37.499936
0
LINE
8
15
62
1
10
59.231
20
28.468
30
-11
11
57.516
21
30.703
31
-11
0
ARC
8
15
62
1
10
56.939
20
30.26
30
-11
40
0.727
50
37.5
51
45.576701
0
LINE
8
15
62
1
10
57.448
20
30.779
30
-11
11
55.437
21
32.751
31
-11
0
ARC
8
15
62
1
10
54.928
20
32.232
30
-11
40
0.727
50
45.576596
51
53.653382
0
LINE
8
15
62
1
10
55.358
20
32.818
30
-11
11
53.089
21
34.487
31
-11
0
ARC
8
15
62
1
10
52.659
20
33.901
30
-11
40
0.727
50
53.653268
51
61.731123
0
LINE
8
15
62
1
10
53.003
20
34.542
30
-11
11
50.522
21
35.876
31
-11
0
ARC
8
15
62
1
10
50.177
20
35.236
30
-11
40
0.727
50
61.731
51
69.806921
0
LINE
8
15
62
1
10
50.428
20
35.918
30
-11
11
47.785
21
36.891
31
-11
0
ARC
8
15
62
1
10
47.534
20
36.208
30
-11
40
0.727
50
69.807024
51
77.885574
0
LINE
8
15
62
1
10
47.686
20
36.919
30
-11
11
44.932
21
37.51
31
-11
0
ARC
8
15
62
1
10
44.779
20
36.799
30
-11
40
0.727
50
77.885384
51
85.961323
0
LINE
8
15
62
1
10
44.83
20
37.525
30
-11
11
42.02
21
37.723
31
-11
0
LINE
8
15
62
1
10
42.02
20
37.723
30
-11
11
30.644
21
37.725
31
-11
0
ARC
8
15
62
1
10
30.646
20
162.98
30
-11
40
125.255
50
-95.935925
51
-90.000805
0
LINE
8
15
62
2
10
17.693
20
38.396
30
-11
11
17.681
21
38.398
31
-11
0
LINE
8
15
62
2
10
17.681
20
38.398
30
-11
11
17.634
21
38.402
31
-10.996
0
LINE
8
15
62
2
10
17.634
20
38.402
30
-10.996
11
17.589
21
38.407
31
-10.985
0
LINE
8
15
62
2
10
17.589
20
38.407
30
-10.985
11
17.545
21
38.412
31
-10.967
0
LINE
8
15
62
2
10
17.545
20
38.412
30
-10.967
11
17.506
21
38.416
31
-10.943
0
LINE
8
15
62
2
10
17.506
20
38.416
30
-10.943
11
17.47
21
38.42
31
-10.912
0
LINE
8
15
62
2
10
17.47
20
38.42
30
-10.912
11
17.439
21
38.423
31
-10.876
0
LINE
8
15
62
2
10
17.439
20
38.423
30
-10.876
11
17.415
21
38.425
31
-10.836
0
LINE
8
15
62
2
10
17.415
20
38.425
30
-10.836
11
17.397
21
38.427
31
-10.793
0
LINE
8
15
62
2
10
17.397
20
38.427
30
-10.793
11
17.386
21
38.428
31
-10.747
0
LINE
8
15
62
2
10
17.386
20
38.428
30
-10.747
11
17.383
21
38.429
31
-10.7
0
LINE
8
15
62
3
10
17.383
20
38.429
30
-10.7
11
17.383
21
38.429
31
5
0
LINE
8
15
62
3
10
17.383
20
38.429
30
5
11
-38.109
21
58.272
31
5
0
LINE
8
15
62
4
10
-38.109
20
58.272
30
5
11
-38.109
21
58.272
31
-10.7
0
LINE
8
15
62
2
10
-38.109
20
58.272
30
-10.7
11
-38.112
21
58.274
31
-10.747
0
LINE
8
15
62
2
10
-38.112
20
58.274
30
-10.747
11
-38.121
21
58.28
31
-10.793
0
LINE
8
15
62
2
10
-38.121
20
58.28
30
-10.793
11
-38.136
21
58.29
31
-10.836
0
LINE
8
15
62
2
10
-38.136
20
58.29
30
-10.836
11
-38.156
21
58.304
31
-10.876
0
LINE
8
15
62
2
10
-38.156
20
58.304
30
-10.876
11
-38.182
21
58.321
31
-10.912
0
LINE
8
15
62
2
10
-38.182
20
58.321
30
-10.912
11
-38.211
21
58.341
31
-10.943
0
LINE
8
15
62
2
10
-38.211
20
58.341
30
-10.943
11
-38.245
21
58.363
31
-10.967
0
LINE
8
15
62
2
10
-38.245
20
58.363
30
-10.967
11
-38.281
21
58.387
31
-10.985
0
LINE
8
15
62
2
10
-38.281
20
58.387
30
-10.985
11
-38.319
21
58.413
31
-10.996
0
LINE
8
15
62
2
10
-38.319
20
58.413
30
-10.996
11
-38.357
21
58.439
31
-11
0
LINE
8
15
62
2
10
-38.357
20
58.439
30
-11
11
-39.331
21
59.095
31
-11
0
ARC
8
15
62
1
10
30.646
20
162.98
30
-11
40
125.255
50
-125.90104
51
-123.964161
0
ARC
8
15
62
1
10
-46.561
20
56.328
30
-11
40
6.409
50
54.098952
51
64.180763
0
ARC
8
15
62
1
10
-34.934
20
80.357
30
-11
40
20.285
50
-119.001121
51
-115.819268
0
ARC
8
15
62
1
10
-45.122
20
61.98
30
-11
40
0.727
50
60.998906
51
71.348254
0
LINE
8
15
62
1
10
-44.889
20
62.669
30
-11
11
-46.94
21
63.361
31
-11
0
ARC
8
15
62
1
10
-47.172
20
62.672
30
-11
40
0.727
50
71.348158
51
81.69537
0
LINE
8
15
62
1
10
-47.067
20
63.391
30
-11
11
-49.209
21
63.704
31
-11
0
ARC
8
15
62
1
10
-49.314
20
62.985
30
-11
40
0.727
50
81.69537
51
92.044228
0
LINE
8
15
62
1
10
-49.34
20
63.711
30
-11
11
-51.503
21
63.634
31
-11
0
ARC
8
15
62
1
10
-51.477
20
62.907
30
-11
40
0.727
50
92.044239
51
102.390452
0
LINE
8
15
62
1
10
-51.633
20
63.618
30
-11
11
-53.747
21
63.153
31
-11
0
ARC
8
15
62
1
10
-53.591
20
62.443
30
-11
40
0.727
50
102.390387
51
112.739603
0
LINE
8
15
62
1
10
-53.872
20
63.114
30
-11
11
-55.868
21
62.277
31
-11
0
ARC
8
15
62
1
10
-55.587
20
61.606
30
-11
40
0.727
50
112.739371
51
123.087032
0
LINE
8
15
62
1
10
-55.984
20
62.216
30
-11
11
-57.797
21
61.034
31
-11
0
ARC
8
15
62
1
10
-57.4
20
60.425
30
-11
40
0.727
50
123.087283
51
133.433066
0
LINE
8
15
62
1
10
-57.9
20
60.953
30
-11
11
-59.472
21
59.465
31
-11
0
ARC
8
15
62
1
10
-58.972
20
58.937
30
-11
40
0.727
50
133.432848
51
143.781726
0
LINE
8
15
62
1
10
-59.558
20
59.366
30
-11
11
-60.837
21
57.62
31
-11
0
ARC
8
15
62
1
10
-60.25
20
57.191
30
-11
40
0.727
50
143.781969
51
154.131094
0
LINE
8
15
62
1
10
-60.905
20
57.508
30
-11
11
-61.849
21
55.561
31
-11
0
ARC
8
15
62
1
10
-61.195
20
55.243
30
-11
40
0.727
50
154.131094
51
164.47782
0
LINE
8
15
62
1
10
-61.895
20
55.438
30
-11
11
-62.475
21
53.353
31
-11
0
ARC
8
15
62
1
10
-61.774
20
53.158
30
-11
40
0.727
50
164.47819
51
174.82549
0
LINE
8
15
62
1
10
-62.498
20
53.223
30
-11
11
-62.693
21
51.068
31
-11
0
LINE
8
15
62
1
10
-62.693
20
51.068
30
-11
11
-62.696
21
-29.002
31
-11
0
ARC
8
15
62
1
10
-48.96
20
-29.002
30
-11
40
13.737
50
180
51
-174.442014
0
ARC
8
15
62
1
10
-104.646
20
-34.421
30
-11
40
42.213
50
3.749969
51
5.557979
0
ARC
8
15
62
1
10
-61.798
20
-31.613
30
-11
40
0.727
50
-176.249962
51
-168.749778
0
LINE
8
15
62
1
10
-62.511
20
-31.755
30
-11
11
-62.001
21
-34.321
31
-11
0
ARC
8
15
62
1
10
-61.288
20
-34.179
30
-11
40
0.727
50
-168.749778
51
-161.250451
0
LINE
8
15
62
1
10
-61.976
20
-34.413
30
-11
11
-61.135
21
-36.89
31
-11
0
ARC
8
15
62
1
10
-60.447
20
-36.656
30
-11
40
0.727
50
-161.250736
51
-153.749344
0
LINE
8
15
62
1
10
-61.099
20
-36.978
30
-11
11
-59.942
21
-39.324
31
-11
0
ARC
8
15
62
1
10
-59.29
20
-39.002
30
-11
40
0.727
50
-153.749481
51
-146.248746
0
LINE
8
15
62
1
10
-59.894
20
-39.406
30
-11
11
-58.441
21
-41.582
31
-11
0
ARC
8
15
62
1
10
-57.836
20
-41.178
30
-11
40
0.727
50
-146.248496
51
-138.750373
0
LINE
8
15
62
1
10
-58.383
20
-41.657
30
-11
11
-56.658
21
-43.624
31
-11
0
ARC
8
15
62
1
10
-56.111
20
-43.145
30
-11
40
0.727
50
-138.750373
51
-131.251323
0
LINE
8
15
62
1
10
-56.591
20
-43.691
30
-11
11
-54.624
21
-45.416
31
-11
0
ARC
8
15
62
1
10
-54.144
20
-44.869
30
-11
40
0.727
50
-131.251125
51
-123.749337
0
LINE
8
15
62
1
10
-54.548
20
-45.474
30
-11
11
-52.373
21
-46.928
31
-11
0
ARC
8
15
62
1
10
-51.969
20
-46.323
30
-11
40
0.727
50
-123.749586
51
-116.249581
0
LINE
8
15
62
1
10
-52.291
20
-46.975
30
-11
11
-49.944
21
-48.132
31
-11
0
ARC
8
15
62
1
10
-49.623
20
-47.48
30
-11
40
0.727
50
-116.249714
51
-108.749549
0
LINE
8
15
62
1
10
-49.857
20
-48.169
30
-11
11
-47.379
21
-49.01
31
-11
0
ARC
8
15
62
1
10
-47.146
20
-48.321
30
-11
40
0.727
50
-108.749264
51
-101.250517
0
LINE
8
15
62
1
10
-47.287
20
-49.034
30
-11
11
-44.722
21
-49.545
31
-11
0
ARC
8
15
62
1
10
-44.58
20
-48.831
30
-11
40
0.727
50
-101.250517
51
-93.750038
0
LINE
8
15
62
1
10
-44.627
20
-49.557
30
-11
11
-42.017
21
-49.728
31
-11
0
LINE
8
15
62
1
10
-42.017
20
-49.728
30
-11
11
-28.491
21
-49.73
31
-11
0
ARC
8
15
62
1
10
-28.493
20
-174.987
30
-11
40
125.258
50
84.064183
51
89.999195
0
LINE
8
15
62
2
10
-15.54
20
-50.401
30
-11
11
20.55
21
-57.885
31
-11
0
ARC
8
15
62
1
10
-28.491
20
-174.98
30
-11
40
126.95
50
66.217506
51
67.275175
0
ARC
8
15
62
1
10
-10.693
20
-134.592
30
-11
40
82.815
50
64.714669
51
66.217508
0
ARC
8
15
62
1
10
115.235
20
131.989
30
-11
40
212.013
50
-115.285333
51
-114.69832
0
ARC
8
15
62
1
10
8.407
20
-100.291
30
-11
40
43.655
50
64.085725
51
65.301677
0
ARC
8
15
62
1
10
37.747
20
-39.907
30
-11
40
23.48
50
-115.914275
51
-113.653396
0
ARC
8
15
62
1
10
29.287
20
-59.22
30
-11
40
2.395
50
-113.653384
51
-103.27106
0
LINE
8
15
62
1
10
28.738
20
-61.551
30
-11
11
30.264
21
-61.911
31
-11
0
ARC
8
15
62
1
10
30.814
20
-59.58
30
-11
40
2.395
50
-103.271016
51
-92.884513
0
LINE
8
15
62
1
10
30.693
20
-61.972
30
-11
11
32.259
21
-62.051
31
-11
0
ARC
8
15
62
1
10
32.38
20
-59.659
30
-11
40
2.395
50
-92.884558
51
-82.499983
0
LINE
8
15
62
1
10
32.692
20
-62.033
30
-11
11
34.247
21
-61.829
31
-11
0
ARC
8
15
62
1
10
33.934
20
-59.454
30
-11
40
2.395
50
-82.499983
51
-72.115655
0
LINE
8
15
62
1
10
34.67
20
-61.734
30
-11
11
36.162
21
-61.252
31
-11
0
ARC
8
15
62
1
10
35.427
20
-58.973
30
-11
40
2.395
50
-72.11554
51
-61.731187
0
LINE
8
15
62
1
10
36.561
20
-61.082
30
-11
11
37.942
21
-60.339
31
-11
0
ARC
8
15
62
1
10
36.808
20
-58.23
30
-11
40
2.395
50
-61.73123
51
-51.343869
0
LINE
8
15
62
1
10
38.304
20
-60.1
30
-11
11
39.528
21
-59.121
31
-11
0
ARC
8
15
62
1
10
38.032
20
-57.251
30
-11
40
2.395
50
-51.34394
51
-40.963789
0
LINE
8
15
62
1
10
39.841
20
-58.821
30
-11
11
40.869
21
-57.637
31
-11
0
ARC
8
15
62
1
10
39.06
20
-56.066
30
-11
40
2.395
50
-40.963789
51
-30.574674
0
LINE
8
15
62
1
10
41.122
20
-57.285
30
-11
11
41.92
21
-55.935
31
-11
0
ARC
8
15
62
1
10
39.858
20
-54.716
30
-11
40
2.395
50
-30.574674
51
-20.192085
0
ARC
8
15
62
1
10
0.573
20
-40.456
30
-11
40
44.188
50
-19.964575
51
-17.596042
0
LINE
8
15
62
1
10
42.694
20
-53.814
30
-11
11
60.339
21
12.04
31
-11
0
ARC
8
15
62
1
10
30.211
20
18.984
30
-11
40
30.918
50
-12.980086
51
-7.983672
0
ARC
8
15
62
1
10
44.074
20
17.04
30
-11
40
16.92
50
-7.983675
51
1.153056
0
ARC
8
15
62
1
10
41.969
20
16.998
30
-11
40
19.025
50
1.154015
51
65.769028
0
ARC
8
15
62
1
10
42.581
20
18.357
30
-11
40
17.534
50
65.769026
51
78.963316
0
ARC
8
15
62
1
10
41.032
20
10.415
30
-11
40
25.625
50
78.963317
51
87.980666
0
LINE
8
15
62
1
10
41.935
20
36.025
30
-11
11
30.644
21
36.025
31
-11
0
ARC
8
15
62
1
10
30.644
20
162.975
30
-11
40
126.95
50
-101.088986
51
-90
0
LINE
8
15
62
2
10
6.228
20
38.395
30
-11
11
-37.537
21
55.888
31
-11
0
ARC
8
15
62
1
10
30.644
20
162.975
30
-11
40
126.95
50
-122.704565
51
-122.484651
0
LINE
8
15
62
1
10
-37.948
20
56.15
30
-11
11
-43.751
21
60.108
31
-11
0
ARC
8
15
62
1
10
-55.82
20
41.119
30
-11
40
22.5
50
57.561778
51
59.860888
0
ARC
8
15
62
1
10
-67.346
20
21.267
30
-11
40
45.455
50
59.860884
51
60.998878
0
ARC
8
15
62
1
10
-46.469
20
58.928
30
-11
40
2.395
50
60.998898
51
71.348264
0
LINE
8
15
62
1
10
-45.703
20
61.197
30
-11
11
-47.184
21
61.697
31
-11
0
ARC
8
15
62
1
10
-47.95
20
59.427
30
-11
40
2.395
50
71.348264
51
81.695473
0
LINE
8
15
62
1
10
-47.604
20
61.797
30
-11
11
-49.15
21
62.023
31
-11
0
ARC
8
15
62
1
10
-49.496
20
59.653
30
-11
40
2.395
50
81.695473
51
92.044184
0
LINE
8
15
62
1
10
-49.581
20
62.047
30
-11
11
-51.143
21
61.991
31
-11
0
ARC
8
15
62
1
10
-51.058
20
59.597
30
-11
40
2.395
50
92.044184
51
102.390427
0
LINE
8
15
62
1
10
-51.571
20
61.937
30
-11
11
-53.098
21
61.601
31
-11
0
ARC
8
15
62
1
10
-52.584
20
59.262
30
-11
40
2.395
50
102.390427
51
112.739436
0
LINE
8
15
62
1
10
-53.509
20
61.471
30
-11
11
-54.951
21
60.867
31
-11
0
ARC
8
15
62
1
10
-54.025
20
58.658
30
-11
40
2.395
50
112.739436
51
123.08728
0
LINE
8
15
62
1
10
-55.332
20
60.665
30
-11
11
-56.641
21
59.812
31
-11
0
ARC
8
15
62
1
10
-55.334
20
57.805
30
-11
40
2.395
50
123.087154
51
133.433013
0
LINE
8
15
62
1
10
-56.981
20
59.544
30
-11
11
-58.115
21
58.47
31
-11
0
ARC
8
15
62
1
10
-56.469
20
56.731
30
-11
40
2.395
50
133.433013
51
143.781854
0
LINE
8
15
62
1
10
-58.401
20
58.146
30
-11
11
-59.324
21
56.885
31
-11
0
ARC
8
15
62
1
10
-57.392
20
55.47
30
-11
40
2.395
50
143.781854
51
154.131063
0
LINE
8
15
62
1
10
-59.547
20
56.515
30
-11
11
-60.229
21
55.109
31
-11
0
ARC
8
15
62
1
10
-58.074
20
54.064
30
-11
40
2.395
50
154.131103
51
164.477804
0
LINE
8
15
62
1
10
-60.381
20
54.705
30
-11
11
-60.8
21
53.2
31
-11
0
ARC
8
15
62
1
10
-58.492
20
52.559
30
-11
40
2.395
50
164.477892
51
174.8255
0
ARC
8
15
62
1
10
-16.493
20
48.947
30
-11
40
44.548
50
175.071712
51
177.412732
0
LINE
8
15
62
1
10
-60.996
20
50.958
30
-11
11
-60.996
21
-28.971
31
-11
0
ARC
8
15
62
1
10
16.014
20
-26.45
30
-11
40
77.052
50
-178.125014
51
-177.187598
0
ARC
8
15
62
1
10
-45.551
20
-29.474
30
-11
40
15.412
50
-177.1876
51
-172.499904
0
ARC
8
15
62
1
10
-41.969
20
-29.002
30
-11
40
19.025
50
-172.500285
51
-112.499526
0
ARC
8
15
62
1
10
-42.539
20
-30.377
30
-11
40
17.537
50
-112.499518
51
-100.248798
0
ARC
8
15
62
1
10
-41.099
20
-22.413
30
-11
40
25.63
50
-100.248807
51
-91.874993
0
LINE
8
15
62
1
10
-41.937
20
-48.03
30
-11
11
-28.491
21
-48.03
31
-11
0
ARC
8
15
62
1
10
-28.491
20
-174.98
30
-11
40
126.95
50
78.911015
51
90
0
LINE
8
15
62
2
10
-4.075
20
-50.4
30
-11
11
18.602
21
-55.259
31
-11
0
ARC
8
15
62
1
10
-28.491
20
-174.98
30
-11
40
128.65
50
66.229673
51
68.527308
0
ARC
8
15
62
1
10
-10.532
20
-134.202
30
-11
40
84.093
50
64.731141
51
66.229672
0
ARC
8
15
62
1
10
118.514
20
139.18
30
-11
40
218.216
50
-115.268859
51
-114.691393
0
ARC
8
15
62
1
10
14.363
20
-87.35
30
-11
40
31.109
50
63.77292
51
65.308605
0
ARC
8
15
62
1
10
36.315
20
-42.791
30
-11
40
18.564
50
-116.227085
51
-113.6534
0
ARC
8
15
62
1
10
29.828
20
-57.601
30
-11
40
2.395
50
-113.653384
51
-103.270995
0
LINE
8
15
62
1
10
29.278
20
-59.932
30
-11
11
30.504
21
-60.221
31
-11
0
ARC
8
15
62
1
10
31.053
20
-57.89
30
-11
40
2.395
50
-103.271016
51
-92.884513
0
LINE
8
15
62
1
10
30.933
20
-60.282
30
-11
11
32.19
21
-60.345
31
-11
0
ARC
8
15
62
1
10
32.311
20
-57.953
30
-11
40
2.395
50
-92.884558
51
-82.499983
0
LINE
8
15
62
1
10
32.624
20
-60.328
30
-11
11
33.872
21
-60.163
31
-11
0
ARC
8
15
62
1
10
33.559
20
-57.789
30
-11
40
2.395
50
-82.500085
51
-72.115655
0
LINE
8
15
62
1
10
34.295
20
-60.068
30
-11
11
35.493
21
-59.682
31
-11
0
ARC
8
15
62
1
10
34.758
20
-57.402
30
-11
40
2.395
50
-72.115568
51
-61.73123
0
LINE
8
15
62
1
10
35.892
20
-59.512
30
-11
11
37.001
21
-58.915
31
-11
0
ARC
8
15
62
1
10
35.866
20
-56.806
30
-11
40
2.395
50
-61.731187
51
-51.343869
0
LINE
8
15
62
1
10
37.362
20
-58.676
30
-11
11
38.346
21
-57.89
31
-11
0
ARC
8
15
62
1
10
36.85
20
-56.019
30
-11
40
2.395
50
-51.34394
51
-40.963789
0
LINE
8
15
62
1
10
38.658
20
-57.59
30
-11
11
39.484
21
-56.639
31
-11
0
ARC
8
15
62
1
10
37.675
20
-55.069
30
-11
40
2.395
50
-40.963858
51
-30.574674
0
LINE
8
15
62
1
10
39.737
20
-56.287
30
-11
11
40.378
21
-55.203
31
-11
0
ARC
8
15
62
1
10
38.316
20
-53.985
30
-11
40
2.395
50
-30.574674
51
-20.192031
0
ARC
8
15
62
1
10
18.399
20
-46.66
30
-11
40
23.615
50
-20.192031
51
-18.256799
0
ARC
8
15
62
1
10
-24.855
20
-32.391
30
-11
40
69.162
50
-18.256798
51
-17.596043
0
LINE
8
15
62
1
10
41.072
20
-53.299
30
-11
11
58.682
21
12.422
31
-11
0
ARC
8
15
62
1
10
30.321
20
18.959
30
-11
40
29.105
50
-12.980089
51
-8.085713
0
ARC
8
15
62
1
10
43.859
20
17.036
30
-11
40
15.431
50
-8.085709
51
1.153064
0
ARC
8
15
62
1
10
41.969
20
16.998
30
-11
40
17.321
50
1.154104
51
65.769027
0
ARC
8
15
62
1
10
42.538
20
18.262
30
-11
40
15.935
50
65.769024
51
79.100865
0
ARC
8
15
62
1
10
41.033
20
10.446
30
-11
40
23.894
50
79.100868
51
87.980665
0
LINE
8
15
62
1
10
41.875
20
34.325
30
-11
11
30.644
21
34.325
31
-11
0
ARC
8
15
62
1
10
30.644
20
162.975
30
-11
40
128.65
50
-104.450035
51
-90
0
LINE
8
15
62
2
10
-1.459
20
38.395
30
-11
11
-36.849
21
53.451
31
-11
0
ARC
8
15
62
1
10
30.644
20
162.975
30
-11
40
128.65
50
-122.664261
51
-121.643179
0
LINE
8
15
62
1
10
-38.79
20
54.671
30
-11
11
-44.665
21
58.67
31
-11
0
ARC
8
15
62
1
10
-58.936
20
36.121
30
-11
40
26.686
50
57.671034
51
60.998879
0
ARC
8
15
62
1
10
-47.159
20
57.366
30
-11
40
2.395
50
60.998898
51
71.348264
0
LINE
8
15
62
1
10
-46.393
20
59.635
30
-11
11
-47.582
21
60.037
31
-11
0
ARC
8
15
62
1
10
-48.348
20
57.767
30
-11
40
2.395
50
71.348264
51
81.695473
0
LINE
8
15
62
1
10
-48.002
20
60.137
30
-11
11
-49.243
21
60.319
31
-11
0
ARC
8
15
62
1
10
-49.589
20
57.949
30
-11
40
2.395
50
81.695459
51
92.044187
0
LINE
8
15
62
1
10
-49.675
20
60.342
30
-11
11
-50.929
21
60.297
31
-11
0
ARC
8
15
62
1
10
-50.843
20
57.904
30
-11
40
2.395
50
92.044184
51
102.390427
0
LINE
8
15
62
1
10
-51.357
20
60.243
30
-11
11
-52.582
21
59.974
31
-11
0
ARC
8
15
62
1
10
-52.069
20
57.635
30
-11
40
2.395
50
102.390358
51
112.739352
0
LINE
8
15
62
1
10
-52.994
20
59.844
30
-11
11
-54.151
21
59.359
31
-11
0
ARC
8
15
62
1
10
-53.226
20
57.15
30
-11
40
2.395
50
112.739352
51
123.08728
0
LINE
8
15
62
1
10
-54.533
20
59.156
30
-11
11
-55.584
21
58.471
31
-11
0
ARC
8
15
62
1
10
-54.277
20
56.465
30
-11
40
2.395
50
123.08728
51
133.43308
0
LINE
8
15
62
1
10
-55.924
20
58.204
30
-11
11
-56.835
21
57.341
31
-11
0
ARC
8
15
62
1
10
-55.188
20
55.602
30
-11
40
2.395
50
133.43308
51
143.781908
0
LINE
8
15
62
1
10
-57.12
20
57.017
30
-11
11
-57.862
21
56.005
31
-11
0
ARC
8
15
62
1
10
-55.929
20
54.59
30
-11
40
2.395
50
143.781908
51
154.131185
0
LINE
8
15
62
1
10
-58.084
20
55.635
30
-11
11
-58.632
21
54.506
31
-11
0
ARC
8
15
62
1
10
-56.477
20
53.461
30
-11
40
2.395
50
154.131145
51
164.477892
0
LINE
8
15
62
1
10
-58.785
20
54.102
30
-11
11
-59.12
21
52.893
31
-11
0
ARC
8
15
62
1
10
-56.813
20
52.252
30
-11
40
2.395
50
164.477892
51
174.8255
0
ARC
8
15
62
1
10
-35.955
20
50.363
30
-11
40
23.338
50
174.825471
51
176.776676
0
ARC
8
15
62
1
10
12.221
20
47.65
30
-11
40
71.59
50
176.776673
51
177.412735
0
LINE
8
15
62
1
10
-59.296
20
50.882
30
-11
11
-59.296
21
-28.915
31
-11
0
ARC
8
15
62
1
10
-30.206
20
-27.963
30
-11
40
29.106
50
-178.125015
51
-173.579626
0
ARC
8
15
62
1
10
-43.795
20
-29.492
30
-11
40
15.431
50
-173.579621
51
-165.000191
0
ARC
8
15
62
1
10
-41.969
20
-29.003
30
-11
40
17.321
50
-165.00035
51
-119.999643
0
ARC
8
15
62
1
10
-42.515
20
-29.948
30
-11
40
16.23
50
-119.999638
51
-103.846288
0
ARC
8
15
62
1
10
-41.166
20
-24.475
30
-11
40
21.866
50
-103.846293
51
-91.874991
0
LINE
8
15
62
1
10
-41.882
20
-46.33
30
-11
11
-28.491
21
-46.33
31
-11
0
ARC
8
15
62
1
10
-28.491
20
-174.98
30
-11
40
128.65
50
75.549965
51
90
0
LINE
8
15
62
2
10
3.611
20
-50.399
30
-11
11
12.933
21
-51.387
31
-11
0
ARC
8
15
62
1
10
-28.491
20
-174.98
30
-11
40
130.35
50
66.241601
51
71.470302
0
ARC
8
15
62
1
10
-10.371
20
-133.814
30
-11
40
85.372
50
64.747295
51
66.241603
0
ARC
8
15
62
1
10
121.847
20
146.493
30
-11
40
224.552
50
-115.252706
51
-114.684601
0
ARC
8
15
62
1
10
18.888
20
-77.514
30
-11
40
21.983
50
63.383321
51
65.315398
0
ARC
8
15
62
1
10
35.158
20
-45.046
30
-11
40
14.334
50
-116.616679
51
-113.653401
0
ARC
8
15
62
1
10
30.369
20
-55.982
30
-11
40
2.395
50
-113.653425
51
-103.27106
0
ARC
8
15
62
1
10
31.978
20
-49.158
30
-11
40
9.406
50
-103.271035
51
-83.013528
0
ARC
8
15
62
1
10
32.243
20
-51.324
30
-11
40
7.223
50
-83.013524
51
-56.537559
0
ARC
8
15
62
1
10
32.333
20
-51.46
30
-11
40
7.061
50
-56.537557
51
-33.374099
0
ARC
8
15
62
1
10
29.605
20
-49.663
30
-11
40
10.328
50
-33.374102
51
-17.596049
0
LINE
8
15
62
1
10
39.449
20
-52.785
30
-11
11
57.024
21
12.804
31
-11
0
ARC
8
15
62
1
10
30.401
20
18.941
30
-11
40
27.321
50
-12.980086
51
-8.206566
0
ARC
8
15
62
1
10
43.639
20
17.031
30
-11
40
13.946
50
-8.206565
51
1.153065
0
ARC
8
15
62
1
10
41.969
20
16.998
30
-11
40
15.616
50
1.154221
51
65.769025
0
ARC
8
15
62
1
10
42.493
20
18.162
30
-11
40
14.339
50
65.769027
51
79.265318
0
ARC
8
15
62
1
10
41.034
20
10.463
30
-11
40
22.175
50
79.265319
51
87.980668
0
LINE
8
15
62
1
10
41.815
20
32.625
30
-11
11
30.644
21
32.625
31
-11
0
ARC
8
15
62
1
10
30.644
20
162.975
30
-11
40
130.35
50
-107.109459
51
-90
0
LINE
8
15
62
2
10
-7.704
20
38.394
30
-11
11
-36.508
21
51.253
31
-11
0
ARC
8
15
62
1
10
30.644
20
162.975
30
-11
40
130.35
50
-122.624748
51
-121.008582
0
LINE
8
15
62
1
10
-39.632
20
53.191
30
-11
11
-45.577
21
57.233
31
-11
0
ARC
8
15
62
1
10
-51.722
20
47.547
30
-11
40
11.47
50
57.60696
51
64.798197
0
ARC
8
15
62
1
10
-49.837
20
51.553
30
-11
40
7.044
50
64.798188
51
76.52184
0
ARC
8
15
62
1
10
-49.969
20
51.002
30
-11
40
7.61
50
76.523185
51
138.607458
0
ARC
8
15
62
1
10
-50.381
20
51.365
30
-11
40
7.06
50
138.607456
51
161.691093
0
ARC
8
15
62
1
10
-47.278
20
50.339
30
-11
40
10.329
50
161.691077
51
177.412723
0
LINE
8
15
62
1
10
-57.596
20
50.805
30
-11
11
-57.596
21
-28.859
31
-11
0
ARC
8
15
62
1
10
-30.288
20
-27.965
30
-11
40
27.323
50
-178.125011
51
-173.691781
0
ARC
8
15
62
1
10
-43.584
20
-29.435
30
-11
40
13.946
50
-173.691786
51
-165.000196
0
ARC
8
15
62
1
10
-41.969
20
-29.003
30
-11
40
15.617
50
-165.000358
51
-119.999639
0
ARC
8
15
62
1
10
-42.483
20
-29.891
30
-11
40
14.591
50
-119.999645
51
-103.672988
0
ARC
8
15
62
1
10
-41.166
20
-24.481
30
-11
40
20.159
50
-103.672984
51
-91.874988
0
LINE
8
15
62
1
10
-41.826
20
-44.63
30
-11
11
-28.491
21
-44.63
31
-11
0
ARC
8
15
62
1
10
-28.491
20
-174.98
30
-11
40
130.35
50
72.113848
51
90
0
LINE
8
15
62
2
10
11.542
20
-50.93
30
-11
11
11.58
21
-50.939
31
-10.992
0
LINE
8
15
62
2
10
11.58
20
-50.939
30
-10.992
11
11.618
21
-50.944
31
-10.985
0
LINE
8
15
62
2
10
11.618
20
-50.944
30
-10.985
11
11.656
21
-50.943
31
-10.977
0
LINE
8
15
62
2
10
11.656
20
-50.943
30
-10.977
11
11.704
21
-50.936
31
-10.945
0
LINE
8
15
62
2
10
11.704
20
-50.936
30
-10.945
11
11.75
21
-50.921
31
-10.912
0
LINE
8
15
62
2
10
11.75
20
-50.921
30
-10.912
11
11.779
21
-50.907
31
-10.863
0
LINE
8
15
62
2
10
11.779
20
-50.907
30
-10.863
11
11.807
21
-50.89
31
-10.815
0
LINE
8
15
62
2
10
11.807
20
-50.89
30
-10.815
11
11.825
21
-50.876
31
-10.7
0
LINE
8
15
62
3
10
11.825
20
-50.876
30
-10.7
11
11.825
21
-50.876
31
5
0
LINE
8
15
62
3
10
11.825
20
-50.876
30
5
11
-35.32
21
48.578
31
5
0
LINE
8
15
62
4
10
-35.32
20
48.578
30
5
11
-35.32
21
48.578
31
-10.625
0
LINE
8
15
62
2
10
-35.32
20
48.578
30
-10.625
11
-35.32
21
48.578
31
-10.7
0
LINE
8
15
62
2
10
-35.32
20
48.578
30
-10.7
11
-35.324
21
48.58
31
-10.747
0
LINE
8
15
62
2
10
-35.324
20
48.58
30
-10.747
11
-35.333
21
48.586
31
-10.793
0
LINE
8
15
62
2
10
-35.333
20
48.586
30
-10.793
11
-35.349
21
48.595
31
-10.836
0
LINE
8
15
62
2
10
-35.349
20
48.595
30
-10.836
11
-35.37
21
48.607
31
-10.876
0
LINE
8
15
62
2
10
-35.37
20
48.607
30
-10.876
11
-35.396
21
48.623
31
-10.912
0
LINE
8
15
62
2
10
-35.396
20
48.623
30
-10.912
11
-35.427
21
48.641
31
-10.943
0
LINE
8
15
62
2
10
-35.427
20
48.641
30
-10.943
11
-35.462
21
48.661
31
-10.967
0
LINE
8
15
62
2
10
-35.462
20
48.661
30
-10.967
11
-35.499
21
48.683
31
-10.985
0
LINE
8
15
62
2
10
-35.499
20
48.683
30
-10.985
11
-35.539
21
48.706
31
-10.996
0
LINE
8
15
62
2
10
-35.539
20
48.706
30
-10.996
11
-35.579
21
48.73
31
-11
0
LINE
8
15
62
2
10
-35.579
20
48.73
30
-11
11
-36.042
21
49.001
31
-11
0
ARC
8
15
62
1
10
30.644
20
162.975
30
-11
40
132.05
50
-124.172266
51
-120.331911
0
ARC
8
15
62
1
10
-19.964
20
88.43
30
-11
40
41.95
50
-126.641687
51
-124.172265
0
ARC
8
15
62
1
10
-59.479
20
35.304
30
-11
40
24.261
50
53.358318
51
57.628885
0
ARC
8
15
62
1
10
-51.714
20
47.552
30
-11
40
9.759
50
57.628887
51
64.430093
0
ARC
8
15
62
1
10
-49.874
20
51.397
30
-11
40
5.496
50
64.430082
51
76.521818
0
ARC
8
15
62
1
10
-49.969
20
51.002
30
-11
40
5.903
50
76.523603
51
138.607454
0
ARC
8
15
62
1
10
-50.318
20
51.31
30
-11
40
5.437
50
138.607471
51
162.50312
0
ARC
8
15
62
1
10
-47.23
20
50.336
30
-11
40
8.675
50
162.503092
51
177.412713
0
LINE
8
15
62
1
10
-55.896
20
50.728
30
-11
11
-55.896
21
-28.804
31
-11
0
ARC
8
15
62
1
10
-30.327
20
-27.967
30
-11
40
25.583
50
-178.125012
51
-173.826718
0
ARC
8
15
62
1
10
-43.367
20
-29.377
30
-11
40
12.467
50
-173.826722
51
-165.000201
0
ARC
8
15
62
1
10
-41.969
20
-29.003
30
-11
40
13.914
50
-165.000372
51
-119.99963
0
ARC
8
15
62
1
10
-42.448
20
-29.832
30
-11
40
12.957
50
-119.999638
51
-103.460927
0
ARC
8
15
62
1
10
-41.166
20
-24.477
30
-11
40
18.463
50
-103.460926
51
-91.874985
0
LINE
8
15
62
1
10
-41.77
20
-42.93
30
-11
11
-28.491
21
-42.93
31
-11
0
ARC
8
15
62
1
10
-28.491
20
-174.98
30
-11
40
132.05
50
66.253297
51
90
0
ARC
8
15
62
1
10
-10.211
20
-133.427
30
-11
40
86.654
50
64.763132
51
66.253297
0
ARC
8
15
62
1
10
125.235
20
153.93
30
-11
40
231.025
50
-115.236868
51
-114.677941
0
ARC
8
15
62
1
10
41.904
20
-27.43
30
-11
40
31.436
50
-114.677942
51
-112.331013
0
ARC
8
15
62
1
10
31.931
20
-51.708
30
-11
40
5.189
50
-112.331013
51
-98.077795
0
ARC
8
15
62
1
10
32.031
20
-51.003
30
-11
40
5.902
50
-98.077788
51
-56.537548
0
ARC
8
15
62
1
10
32.287
20
-51.39
30
-11
40
5.437
50
-56.53755
51
-32.559589
0
ARC
8
15
62
1
10
29.559
20
-49.648
30
-11
40
8.674
50
-32.559606
51
-17.596048
0
LINE
8
15
62
1
10
37.827
20
-52.27
30
-11
11
55.366
21
13.186
31
-11
0
ARC
8
15
62
1
10
30.439
20
18.932
30
-11
40
25.581
50
-12.980088
51
-8.351981
0
ARC
8
15
62
1
10
43.414
20
17.027
30
-11
40
12.466
50
-8.351983
51
1.153058
0
ARC
8
15
62
1
10
41.969
20
16.998
30
-11
40
13.912
50
1.15435
51
65.769023
0
ARC
8
15
62
1
10
42.446
20
18.058
30
-11
40
12.749
50
65.769024
51
79.465405
0
ARC
8
15
62
1
10
41.034
20
10.461
30
-11
40
20.477
50
79.465407
51
87.980667
0
LINE
8
15
62
1
10
41.755
20
30.925
30
-11
11
30.644
21
30.925
31
-11
0
ARC
8
15
62
1
10
30.644
20
162.975
30
-11
40
132.05
50
-109.364522
51
-90
0
LINE
8
15
62
2
10
-13.141
20
38.395
30
-11
11
-35.055
21
46.473
31
-11
0
ARC
8
15
62
1
10
30.644
20
162.975
30
-11
40
133.75
50
-124.131713
51
-119.420122
0
ARC
8
15
62
1
10
-20.483
20
87.55
30
-11
40
42.63
50
-126.589146
51
-124.131712
0
ARC
8
15
62
1
10
-60.625
20
33.478
30
-11
40
24.714
50
53.410857
51
54.191156
0
ARC
8
15
62
2
10
-46.282
20
53.358
30
-11
40
0.2
50
54.19173
51
117.814834
0
LINE
8
15
62
2
10
-46.375
20
53.535
30
-11
11
-54.09
21
49.465
31
-11
0
ARC
8
15
62
2
10
-53.996
20
49.288
30
-11
40
0.2
50
117.814834
51
180
0
LINE
8
15
62
1
10
-54.196
20
49.288
30
-11
11
-54.196
21
-28.748
31
-11
0
ARC
8
15
62
1
10
-30.305
20
-27.966
30
-11
40
23.904
50
-178.125017
51
-173.992159
0
ARC
8
15
62
1
10
-43.143
20
-29.317
30
-11
40
10.996
50
-173.992159
51
-165.000196
0
ARC
8
15
62
1
10
-41.969
20
-29.003
30
-11
40
12.21
50
-165.000385
51
-119.999648
0
ARC
8
15
62
1
10
-42.411
20
-29.767
30
-11
40
11.328
50
-119.999649
51
-103.195489
0
ARC
8
15
62
1
10
-41.166
20
-24.457
30
-11
40
16.782
50
-103.195483
51
-91.874994
0
LINE
8
15
62
1
10
-41.715
20
-41.23
30
-11
11
-28.491
21
-41.23
31
-11
0
ARC
8
15
62
1
10
-28.491
20
-174.98
30
-11
40
133.75
50
66.264769
51
90
0
ARC
8
15
62
1
10
-10.052
20
-133.043
30
-11
40
87.938
50
64.778669
51
66.264771
0
ARC
8
15
62
1
10
128.681
20
161.494
30
-11
40
237.636
50
-115.221334
51
-114.912963
0
ARC
8
15
62
2
10
28.663
20
-53.848
30
-11
40
0.2
50
-114.912946
51
-65.803996
0
LINE
8
15
62
2
10
28.745
20
-54.031
30
-11
11
36.447
21
-50.57
31
-11
0
ARC
8
15
62
2
10
36.365
20
-50.388
30
-11
40
0.2
50
-65.804494
51
-15.000546
0
LINE
8
15
62
1
10
36.558
20
-50.439
30
-11
11
53.709
21
13.568
31
-11
0
ARC
8
15
62
1
10
-1.364
20
26.263
30
-11
40
56.517
50
-12.980087
51
-11.968822
0
ARC
8
15
62
1
10
42.841
20
16.892
30
-11
40
11.33
50
-11.968821
51
-6.922738
0
ARC
8
15
62
1
10
41.969
20
16.998
30
-11
40
12.208
50
-6.92326
51
57.692132
0
ARC
8
15
62
1
10
42.442
20
17.746
30
-11
40
11.323
50
57.692137
51
75.791563
0
ARC
8
15
62
1
10
41.104
20
12.461
30
-11
40
16.775
50
75.791568
51
87.980677
0
LINE
8
15
62
1
10
41.695
20
29.225
30
-11
11
30.644
21
29.225
31
-11
0
ARC
8
15
62
1
10
30.644
20
162.975
30
-11
40
133.75
50
-111.33878
51
-90
0
LINE
8
15
62
2
10
-18.025
20
38.394
30
-11
11
-33
21
43.408
31
-11
0
ARC
8
15
62
1
10
30.644
20
162.975
30
-11
40
135.45
50
-124.091926
51
-118.025804
0
ARC
8
15
62
1
10
-21.001
20
86.672
30
-11
40
43.312
50
-124.270019
51
-124.091923
0
ARC
8
15
62
2
10
-45.503
20
50.714
30
-11
40
0.2
50
55.730402
51
117.513719
0
LINE
8
15
62
2
10
-45.595
20
50.891
30
-11
11
-52.389
21
47.352
31
-11
0
ARC
8
15
62
2
10
-52.296
20
47.175
30
-11
40
0.2
50
117.513214
51
180
0
LINE
8
15
62
1
10
-52.496
20
47.175
30
-11
11
-52.496
21
16.109
31
-11
0
ARC
8
15
62
2
10
-52.296
20
16.109
30
-11
40
0.2
50
180
51
-1.695255
0
LINE
8
15
62
2
10
-52.096
20
16.103
30
-11
11
-51.196
21
46.515
31
-11
0
ARC
8
15
62
2
10
-50.996
20
46.509
30
-11
40
0.2
50
0
51
178.304778
0
LINE
8
15
62
1
10
-50.796
20
46.509
30
-11
11
-50.796
21
19.718
31
-11
0
ARC
8
15
62
2
10
-50.596
20
19.718
30
-11
40
0.2
50
180
51
-1.830804
0
LINE
8
15
62
2
10
-50.397
20
19.712
30
-11
11
-49.54
21
46.511
31
-11
0
ARC
8
15
62
2
10
-49.34
20
46.504
30
-11
40
0.2
50
0.032785
51
178.169196
0
LINE
8
15
62
1
10
-49.14
20
46.504
30
-11
11
-49.126
21
22.002
31
-11
0
LINE
8
15
62
2
10
-49.126
20
22.002
30
-11
11
-49.126
21
21.99
31
-11
0
LINE
8
15
62
2
10
-49.126
20
21.99
30
-11
11
-49.126
21
21.943
31
-10.996
0
LINE
8
15
62
2
10
-49.126
20
21.943
30
-10.996
11
-49.126
21
21.897
31
-10.985
0
LINE
8
15
62
2
10
-49.126
20
21.897
30
-10.985
11
-49.126
21
21.854
31
-10.967
0
LINE
8
15
62
2
10
-49.126
20
21.854
30
-10.967
11
-49.126
21
21.814
31
-10.943
0
LINE
8
15
62
2
10
-49.126
20
21.814
30
-10.943
11
-49.126
21
21.778
31
-10.912
0
LINE
8
15
62
2
10
-49.126
20
21.778
30
-10.912
11
-49.126
21
21.747
31
-10.876
0
LINE
8
15
62
2
10
-49.126
20
21.747
30
-10.876
11
-49.126
21
21.723
31
-10.836
0
LINE
8
15
62
2
10
-49.126
20
21.723
30
-10.836
11
-49.126
21
21.705
31
-10.793
0
LINE
8
15
62
2
10
-49.126
20
21.705
30
-10.793
11
-49.126
21
21.694
31
-10.747
0
LINE
8
15
62
2
10
-49.126
20
21.694
30
-10.747
11
-49.126
21
21.69
31
-10.7
0
LINE
8
15
62
3
10
-49.126
20
21.69
30
-10.7
11
-49.126
21
21.69
31
5
0
LINE
8
15
62
3
10
-49.126
20
21.69
30
5
11
13.952
21
28.557
31
5
0
LINE
8
15
62
4
10
13.952
20
28.557
30
5
11
13.952
21
28.557
31
0.6
0
LINE
8
15
62
2
10
13.952
20
28.557
30
0.6
11
13.952
21
28.557
31
-10.7
0
LINE
8
15
62
2
10
13.952
20
28.557
30
-10.7
11
13.949
21
28.557
31
-10.747
0
LINE
8
15
62
2
10
13.949
20
28.557
30
-10.747
11
13.938
21
28.559
31
-10.793
0
LINE
8
15
62
2
10
13.938
20
28.559
30
-10.793
11
13.92
21
28.561
31
-10.836
0
LINE
8
15
62
2
10
13.92
20
28.561
30
-10.836
11
13.896
21
28.564
31
-10.876
0
LINE
8
15
62
2
10
13.896
20
28.564
30
-10.876
11
13.865
21
28.568
31
-10.912
0
LINE
8
15
62
2
10
13.865
20
28.568
30
-10.912
11
13.83
21
28.572
31
-10.943
0
LINE
8
15
62
2
10
13.83
20
28.572
30
-10.943
11
13.79
21
28.577
31
-10.967
0
LINE
8
15
62
2
10
13.79
20
28.577
30
-10.967
11
13.747
21
28.583
31
-10.985
0
LINE
8
15
62
2
10
13.747
20
28.583
30
-10.985
11
13.701
21
28.589
31
-10.996
0
LINE
8
15
62
2
10
13.701
20
28.589
30
-10.996
11
13.655
21
28.595
31
-11
0
LINE
8
15
62
2
10
13.655
20
28.595
30
-11
11
13.625
21
28.598
31
-11
0
ARC
8
15
62
1
10
30.644
20
162.975
30
-11
40
135.45
50
-113.163822
51
-97.218228
0
ARC
8
15
62
2
10
-22.558
20
38.628
30
-11
40
0.2
50
69.134041
51
-113.163936
0
LINE
8
15
62
2
10
-22.487
20
38.815
30
-11
11
3.309
21
28.982
31
-11
0
ARC
8
15
62
2
10
3.238
20
28.795
30
-11
40
0.2
50
-101.543907
51
69.133974
0
ARC
8
15
62
1
10
30.644
20
162.975
30
-11
40
137.15
50
-123.880034
51
-101.543806
0
ARC
8
15
62
2
10
-45.699
20
49.278
30
-11
40
0.2
50
63.755558
51
-123.880717
0
LINE
8
15
62
2
10
-45.611
20
49.457
30
-11
11
-4.059
21
28.971
31
-11
0
ARC
8
15
62
2
10
-4.148
20
28.791
30
-11
40
0.2
50
-104.571916
51
63.754823
0
ARC
8
15
62
1
10
30.787
20
163.18
30
-11
40
139.055
50
-123.89009
51
-104.571903
0
ARC
8
15
62
2
10
-46.638
20
47.915
30
-11
40
0.2
50
62.187609
51
-123.889505
0
LINE
8
15
62
2
10
-46.545
20
48.092
30
-11
11
-10.291
21
28.968
31
-11
0
ARC
8
15
62
2
10
-10.385
20
28.791
30
-11
40
0.2
50
-107.03347
51
62.188105
0
ARC
8
15
62
1
10
30.793
20
163.199
30
-11
40
140.774
50
-123.629139
51
-107.033353
0
ARC
8
15
62
1
10
-47.266
20
45.839
30
-11
40
0.175
50
56.37057
51
180
0
LINE
8
15
62
1
10
-47.441
20
45.839
30
-11
11
-47.428
21
23.76
31
-11
0
ARC
8
15
62
2
10
-47.228
20
23.76
30
-11
40
0.2
50
-179.965576
51
-81.534754
0
LINE
8
15
62
2
10
-47.199
20
23.562
30
-11
11
-15.952
21
28.213
31
-11
0
ARC
8
15
62
2
10
-15.981
20
28.411
30
-11
40
0.2
50
-81.533944
51
70.86238
0
ARC
8
15
62
1
10
30.8
20
163.22
30
-11
40
142.495
50
-122.359258
51
-109.13755
0
ARC
8
15
62
1
10
-45.563
20
42.702
30
-11
40
0.178
50
57.639821
51
180
0
LINE
8
15
62
1
10
-45.741
20
42.702
30
-11
11
-45.73
21
25.133
31
-11
0
ARC
8
15
62
2
10
-45.53
20
25.133
30
-11
40
0.2
50
-179.96339
51
-82.398929
0
LINE
8
15
62
2
10
-45.504
20
24.935
30
-11
11
-20.916
21
28.216
31
-11
0
ARC
8
15
62
2
10
-20.943
20
28.415
30
-11
40
0.2
50
-82.398388
51
69.002739
0
ARC
8
15
62
1
10
30.806
20
163.243
30
-11
40
144.218
50
-121.136398
51
-110.997481
0
ARC
8
15
62
1
10
-43.86
20
39.645
30
-11
40
0.182
50
58.863773
51
180
0
LINE
8
15
62
1
10
-44.041
20
39.645
30
-11
11
-44.033
21
26.233
31
-11
0
ARC
8
15
62
2
10
-43.833
20
26.233
30
-11
40
0.2
50
-179.961751
51
-83.214061
0
LINE
8
15
62
2
10
-43.809
20
26.035
30
-11
11
-25.485
21
28.215
31
-11
0
ARC
8
15
62
2
10
-25.509
20
28.414
30
-11
40
0.2
50
-83.213519
51
67.332135
0
ARC
8
15
62
1
10
30.813
20
163.267
30
-11
40
145.943
50
-119.957165
51
-112.667962
0
ARC
8
15
62
1
10
-42.156
20
36.662
30
-11
40
0.185
50
60.043547
51
180
0
LINE
8
15
62
1
10
-42.341
20
36.662
30
-11
11
-42.335
21
27.07
31
-11
0
ARC
8
15
62
2
10
-42.135
20
27.07
30
-11
40
0.2
50
-179.960112
51
-83.753036
0
LINE
8
15
62
2
10
-42.113
20
26.871
30
-11
11
-29.776
21
28.222
31
-11
0
ARC
8
15
62
2
10
-29.798
20
28.421
30
-11
40
0.2
50
-83.752493
51
65.798614
0
ARC
8
15
62
1
10
30.82
20
163.294
30
-11
40
147.669
50
-118.81854
51
-114.201248
0
ARC
8
15
62
1
10
-40.453
20
33.748
30
-11
40
0.188
50
61.180513
51
180
0
LINE
8
15
62
1
10
-40.641
20
33.748
30
-11
11
-40.641
21
27.673
31
-11
0
ARC
8
15
62
2
10
-40.441
20
27.673
30
-11
40
0.2
50
180
51
-83.555116
0
LINE
8
15
62
2
10
-40.419
20
27.475
30
-11
11
-33.81
21
28.221
31
-11
0
ARC
8
15
62
2
10
-33.832
20
28.42
30
-11
40
0.2
50
-83.555116
51
64.392176
0
ARC
8
15
62
1
10
30.827
20
163.323
30
-11
40
149.398
50
-117.717831
51
-115.608459
0
ARC
8
15
62
1
10
-38.75
20
30.899
30
-11
40
0.192
50
62.281456
51
180
0
LINE
8
15
62
1
10
-38.941
20
30.899
30
-11
11
-38.941
21
28.139
31
-11
0
LINE
8
15
62
2
10
-38.941
20
28.139
30
-11
11
-38.941
21
28.127
31
-11
0
LINE
8
15
62
2
10
-38.941
20
28.127
30
-11
11
-38.941
21
28.08
31
-10.996
0
LINE
8
15
62
2
10
-38.941
20
28.08
30
-10.996
11
-38.941
21
28.034
31
-10.985
0
LINE
8
15
62
2
10
-38.941
20
28.034
30
-10.985
11
-38.941
21
27.991
31
-10.967
0
LINE
8
15
62
2
10
-38.941
20
27.991
30
-10.967
11
-38.941
21
27.951
31
-10.943
0
LINE
8
15
62
2
10
-38.941
20
27.951
30
-10.943
11
-38.941
21
27.915
31
-10.912
0
LINE
8
15
62
2
10
-38.941
20
27.915
30
-10.912
11
-38.941
21
27.884
31
-10.876
0
LINE
8
15
62
2
10
-38.941
20
27.884
30
-10.876
11
-38.941
21
27.86
31
-10.836
0
LINE
8
15
62
2
10
-38.941
20
27.86
30
-10.836
11
-38.941
21
27.842
31
-10.793
0
LINE
8
15
62
2
10
-38.941
20
27.842
30
-10.793
11
-38.941
21
27.831
31
-10.747
0
LINE
8
15
62
2
10
-38.941
20
27.831
30
-10.747
11
-38.941
21
27.827
31
-10.7
0
LINE
8
15
62
3
10
-38.941
20
27.827
30
-10.7
11
-38.941
21
27.827
31
5
0
LINE
8
15
62
3
10
-38.941
20
27.827
30
5
11
-11.8
21
-40.562
31
5
0
LINE
8
15
62
4
10
-11.8
20
-40.562
30
5
11
-11.8
21
-40.562
31
0.6
0
LINE
8
15
62
2
10
-11.8
20
-40.562
30
0.6
11
-11.8
21
-40.562
31
-10.7
0
LINE
8
15
62
2
10
-11.8
20
-40.562
30
-10.7
11
-11.796
21
-40.562
31
-10.747
0
LINE
8
15
62
2
10
-11.796
20
-40.562
30
-10.747
11
-11.785
21
-40.563
31
-10.793
0
LINE
8
15
62
2
10
-11.785
20
-40.563
30
-10.793
11
-11.767
21
-40.566
31
-10.836
0
LINE
8
15
62
2
10
-11.767
20
-40.566
30
-10.836
11
-11.743
21
-40.569
31
-10.876
0
LINE
8
15
62
2
10
-11.743
20
-40.569
30
-10.876
11
-11.713
21
-40.573
31
-10.912
0
LINE
8
15
62
2
10
-11.713
20
-40.573
30
-10.912
11
-11.677
21
-40.577
31
-10.943
0
LINE
8
15
62
2
10
-11.677
20
-40.577
30
-10.943
11
-11.637
21
-40.582
31
-10.967
0
LINE
8
15
62
2
10
-11.637
20
-40.582
30
-10.967
11
-11.594
21
-40.588
31
-10.985
0
LINE
8
15
62
2
10
-11.594
20
-40.588
30
-10.985
11
-11.549
21
-40.593
31
-10.996
0
LINE
8
15
62
2
10
-11.549
20
-40.593
30
-10.996
11
-11.502
21
-40.599
31
-11
0
LINE
8
15
62
2
10
-11.502
20
-40.599
30
-11
11
-11.472
21
-40.603
31
-11
0
ARC
8
15
62
1
10
-28.491
20
-174.98
30
-11
40
135.45
50
66.276026
51
82.781772
0
ARC
8
15
62
1
10
-9.893
20
-132.66
30
-11
40
89.224
50
65.216975
51
66.276025
0
ARC
8
15
62
2
10
27.592
20
-51.472
30
-11
40
0.2
50
-114.783346
51
-65.003969
0
LINE
8
15
62
2
10
27.676
20
-51.653
30
-11
11
35.359
21
-48.071
31
-11
0
ARC
8
15
62
2
10
35.274
20
-47.89
30
-11
40
0.2
50
-65.002979
51
-15.000546
0
LINE
8
15
62
1
10
35.467
20
-47.942
30
-11
11
40.572
21
-28.891
31
-11
0
ARC
8
15
62
2
10
40.379
20
-28.839
30
-11
40
0.2
50
-15.000018
51
162.300126
0
LINE
8
15
62
2
10
40.188
20
-28.778
30
-11
11
34.377
21
-46.987
31
-11
0
ARC
8
15
62
2
10
34.186
20
-46.926
30
-11
40
0.2
50
164.999737
51
-17.700206
0
LINE
8
15
62
1
10
33.993
20
-46.875
30
-11
11
37.817
21
-32.603
31
-11
0
ARC
8
15
62
2
10
37.624
20
-32.551
30
-11
40
0.2
50
-15.000546
51
161.67944
0
LINE
8
15
62
2
10
37.434
20
-32.488
30
-11
11
32.779
21
-46.547
31
-11
0
ARC
8
15
62
2
10
32.589
20
-46.484
30
-11
40
0.2
50
165.039228
51
-18.32056
0
LINE
8
15
62
1
10
32.396
20
-46.433
30
-11
11
35.502
21
-34.808
31
-11
0
ARC
8
15
62
2
10
35.309
20
-34.756
30
-11
40
0.2
50
-14.960772
51
161.003464
0
LINE
8
15
62
2
10
35.12
20
-34.691
30
-11
11
30.959
21
-46.779
31
-11
0
ARC
8
15
62
2
10
30.77
20
-46.714
30
-11
40
0.2
50
165.040143
51
-18.996358
0
LINE
8
15
62
1
10
30.576
20
-46.663
30
-11
11
33.3
21
-36.469
31
-11
0
ARC
8
15
62
2
10
33.107
20
-36.417
30
-11
40
0.2
50
-14.959716
51
96.672552
0
LINE
8
15
62
2
10
33.084
20
-36.218
30
-11
11
-1.029
21
-40.209
31
-11
0
ARC
8
15
62
2
10
-1.005
20
-40.408
30
-11
40
0.2
50
96.672756
51
-101.543873
0
ARC
8
15
62
1
10
-28.491
20
-174.98
30
-11
40
137.15
50
66.287072
51
78.456195
0
ARC
8
15
62
1
10
-9.736
20
-132.279
30
-11
40
90.512
50
65.637247
51
66.287074
0
ARC
8
15
62
2
10
27.519
20
-50.009
30
-11
40
0.2
50
-113.446408
51
65.636721
0
LINE
8
15
62
2
10
27.439
20
-50.193
30
-11
11
6.204
21
-40.983
31
-11
0
ARC
8
15
62
2
10
6.284
20
-40.799
30
-11
40
0.2
50
75.434039
51
-113.446909
0
ARC
8
15
62
1
10
-28.691
20
-175.399
30
-11
40
139.269
50
65.831504
51
75.434193
0
ARC
8
15
62
2
10
28.411
20
-48.155
30
-11
40
0.2
50
-114.168598
51
-23.851556
0
ARC
8
15
62
2
10
28.411
20
-48.155
30
-11
40
0.2
50
-23.851556
51
66.465486
0
LINE
8
15
62
2
10
28.49
20
-47.971
30
-11
11
12.441
21
-40.981
31
-11
0
ARC
8
15
62
2
10
12.521
20
-40.798
30
-11
40
0.2
50
72.977678
51
-113.534264
0
ARC
8
15
62
1
10
-28.698
20
-175.43
30
-11
40
141.001
50
65.544182
51
72.977451
0
ARC
8
15
62
2
10
29.758
20
-46.898
30
-11
40
0.2
50
-114.455712
51
64.320078
0
LINE
8
15
62
2
10
29.844
20
-46.718
30
-11
11
17.9
21
-40.974
31
-11
0
ARC
8
15
62
2
10
17.987
20
-40.794
30
-11
40
0.2
50
70.878188
51
-115.679448
0
ARC
8
15
62
1
10
-28.705
20
-175.464
30
-11
40
142.735
50
66.166723
51
70.877761
0
ARC
8
15
62
1
10
29.078
20
-44.657
30
-11
40
0.267
50
-113.83303
51
-14.999688
0
LINE
8
15
62
1
10
29.336
20
-44.726
30
-11
11
31.208
21
-37.719
31
-11
0
ARC
8
15
62
2
10
31.015
20
-37.667
30
-11
40
0.2
50
-14.95866
51
107.071153
0
LINE
8
15
62
2
10
30.956
20
-37.476
30
-11
11
22.565
21
-40.053
31
-11
0
ARC
8
15
62
2
10
22.623
20
-40.244
30
-11
40
0.2
50
107.071153
51
-110.784358
0
ARC
8
15
62
1
10
-28.713
20
-175.501
30
-11
40
144.471
50
66.956493
51
69.215833
0
ARC
8
15
62
1
10
27.943
20
-42.308
30
-11
40
0.271
50
-113.043415
51
-15.00021
0
LINE
8
15
62
1
10
28.205
20
-42.378
30
-11
11
29.204
21
-38.639
31
-11
0
ARC
8
15
62
2
10
29.011
20
-38.587
30
-11
40
0.2
50
-14.957463
51
108.183187
0
LINE
8
15
62
2
10
28.948
20
-38.397
30
-11
11
25.713
21
-39.46
31
-11
0
ARC
8
15
62
2
10
25.775
20
-39.65
30
-11
40
0.2
50
108.183706
51
-111.851838
0
ARC
8
15
62
1
10
-28.721
20
-175.54
30
-11
40
146.21
50
67.726325
51
68.147651
0
ARC
8
15
62
1
10
26.802
20
-39.985
30
-11
40
0.275
50
-112.273846
51
-14.999592
0
LINE
8
15
62
1
10
27.067
20
-40.056
30
-11
11
27.249
21
-39.373
31
-11
0
LINE
8
15
62
2
10
27.249
20
-39.373
30
-11
11
27.252
21
-39.362
31
-11
0
LINE
8
15
62
2
10
27.252
20
-39.362
30
-11
11
27.265
21
-39.316
31
-10.996
0
LINE
8
15
62
2
10
27.265
20
-39.316
30
-10.996
11
27.276
21
-39.272
31
-10.985
0
LINE
8
15
62
2
10
27.276
20
-39.272
30
-10.985
11
27.288
21
-39.23
31
-10.967
0
LINE
8
15
62
2
10
27.288
20
-39.23
30
-10.967
11
27.298
21
-39.191
31
-10.943
0
LINE
8
15
62
2
10
27.298
20
-39.191
30
-10.943
11
27.307
21
-39.157
31
-10.912
0
LINE
8
15
62
2
10
27.307
20
-39.157
30
-10.912
11
27.315
21
-39.127
31
-10.876
0
LINE
8
15
62
2
10
27.315
20
-39.127
30
-10.876
11
27.321
21
-39.103
31
-10.836
0
LINE
8
15
62
2
10
27.321
20
-39.103
30
-10.836
11
27.326
21
-39.086
31
-10.793
0
LINE
8
15
62
2
10
27.326
20
-39.086
30
-10.793
11
27.329
21
-39.075
31
-10.747
0
LINE
8
15
62
2
10
27.329
20
-39.075
30
-10.747
11
27.33
21
-39.072
31
-10.7
0
LINE
8
15
62
3
10
27.33
20
-39.072
30
-10.7
11
27.33
21
-39.072
31
15
0
ENDSEC
0
EOF
